<svg xmlns="http://www.w3.org/2000/svg" width="96" height="96" viewBox="0 0 96 96" role="img" aria-label="User profile">
  <defs>
    <linearGradient id="bg" x1="16" y1="10" x2="82" y2="90" gradientUnits="userSpaceOnUse">
      <stop stop-color="#175CD3"/>
      <stop offset="1" stop-color="#101828"/>
    </linearGradient>
    <linearGradient id="shine" x1="30" y1="14" x2="74" y2="64" gradientUnits="userSpaceOnUse">
      <stop stop-color="#FFFFFF" stop-opacity="0.42"/>
      <stop offset="1" stop-color="#FFFFFF" stop-opacity="0"/>
    </linearGradient>
  </defs>
  <rect width="96" height="96" rx="48" fill="url(#bg)"/>
  <path d="M18 28C29 12 54 6 75 22C55 18 39 25 29 42C24 38 20 33 18 28Z" fill="url(#shine)"/>
  <circle cx="48" cy="36" r="16" fill="#F7FBFF"/>
  <path d="M20 78C24 59 35 50 48 50C61 50 72 59 76 78C68 85 59 88 48 88C37 88 28 85 20 78Z" fill="#F7FBFF"/>
  <path d="M32 78C35 66 41 60 48 60C55 60 61 66 64 78" fill="none" stroke="#D0D5DD" stroke-width="3" stroke-linecap="round"/>
</svg>
